<svg width="300" height="300" viewBox="0 0 300 300" fill="none" xmlns="http://www.w3.org/2000/svg">
<rect width="300" height="300" rx="150" fill="white"/>
<g filter="url(#filter0_di_5336_181783)">
<path d="M66.226 182.627C63.9291 182.627 62.0553 182.143 60.6046 181.176C59.2144 180.209 58.0357 178.668 57.0686 176.552L35.1273 128.136C34.1602 126.021 33.858 124.117 34.2206 122.424C34.5833 120.732 35.4295 119.432 36.7593 118.526C38.0891 117.558 39.7513 117.075 41.746 117.075C44.2242 117.075 46.0677 117.619 47.2766 118.707C48.546 119.795 49.634 121.397 50.5406 123.512L69.0366 166.307H63.9593L82.4553 123.422C83.362 121.306 84.45 119.734 85.7193 118.707C86.9886 117.619 88.7718 117.075 91.0686 117.075C92.9424 117.075 94.514 117.558 95.7833 118.526C97.0526 119.432 97.8384 120.732 98.1406 122.424C98.5033 124.117 98.2011 126.021 97.234 128.136L75.202 176.552C74.2953 178.668 73.1469 180.209 71.7566 181.176C70.3664 182.143 68.5229 182.627 66.226 182.627Z" fill="#B0D4F7"/>
<path d="M112.211 181.811C109.551 181.811 107.466 181.086 105.955 179.635C104.504 178.124 103.779 176.038 103.779 173.379V126.232C103.779 123.512 104.504 121.427 105.955 119.976C107.406 118.526 109.461 117.8 112.12 117.8C114.84 117.8 116.895 118.526 118.286 119.976C119.736 121.427 120.462 123.512 120.462 126.232V167.939H142.584C144.881 167.939 146.634 168.543 147.843 169.752C149.112 170.901 149.747 172.593 149.747 174.83C149.747 177.066 149.112 178.789 147.843 179.998C146.634 181.206 144.881 181.811 142.584 181.811H112.211Z" fill="#B0D4F7"/>
<path d="M184.1 182.808C176.787 182.808 170.561 181.448 165.423 178.728C160.346 176.008 156.477 172.2 153.818 167.304C151.158 162.408 149.828 156.696 149.828 150.168C149.828 145.091 150.614 140.527 152.186 136.478C153.818 132.367 156.145 128.862 159.167 125.96C162.189 122.998 165.876 120.762 170.228 119.251C174.641 117.679 179.628 116.894 185.188 116.894C188.211 116.894 191.293 117.196 194.436 117.8C197.58 118.344 200.662 119.402 203.684 120.974C205.256 121.699 206.314 122.726 206.858 124.056C207.462 125.326 207.644 126.686 207.402 128.136C207.22 129.526 206.707 130.826 205.86 132.035C205.075 133.183 203.987 133.969 202.596 134.392C201.206 134.755 199.635 134.543 197.882 133.758C196.068 132.911 194.104 132.277 191.988 131.854C189.873 131.37 187.636 131.128 185.279 131.128C181.229 131.128 177.844 131.854 175.124 133.304C172.465 134.755 170.47 136.901 169.14 139.742C167.811 142.582 167.146 146.058 167.146 150.168C167.146 156.334 168.657 160.988 171.679 164.131C174.701 167.274 179.174 168.846 185.098 168.846C186.911 168.846 188.876 168.664 190.991 168.302C193.167 167.939 195.343 167.425 197.519 166.76L194.436 173.016V157.512H188.09C186.035 157.512 184.433 156.998 183.284 155.971C182.196 154.943 181.652 153.493 181.652 151.619C181.652 149.745 182.196 148.325 183.284 147.358C184.433 146.33 186.035 145.816 188.09 145.816H201.508C203.624 145.816 205.226 146.39 206.314 147.539C207.462 148.627 208.036 150.229 208.036 152.344V172.382C208.036 174.195 207.644 175.736 206.858 177.006C206.132 178.275 204.954 179.182 203.322 179.726C200.481 180.693 197.398 181.448 194.074 181.992C190.749 182.536 187.425 182.808 184.1 182.808Z" fill="#B0D4F7"/>
<path d="M239.445 182.627C236.786 182.627 234.731 181.902 233.28 180.451C231.829 178.94 231.104 176.794 231.104 174.014V149.171L234.549 158.328L213.696 128.318C212.668 126.867 212.215 125.265 212.336 123.512C212.517 121.699 213.243 120.188 214.512 118.979C215.842 117.71 217.716 117.075 220.133 117.075C221.826 117.075 223.367 117.498 224.757 118.344C226.148 119.13 227.447 120.49 228.656 122.424L241.349 141.102H238.085L250.779 122.334C252.048 120.399 253.348 119.039 254.677 118.254C256.007 117.468 257.579 117.075 259.392 117.075C261.689 117.075 263.472 117.649 264.741 118.798C266.011 119.946 266.676 121.397 266.736 123.15C266.857 124.902 266.313 126.686 265.104 128.499L244.432 158.328L247.787 149.171V174.014C247.787 179.756 245.006 182.627 239.445 182.627Z" fill="#B0D4F7"/>
<path d="M59.6909 182.49L59.7039 182.499L59.7171 182.508C61.5022 183.698 63.7119 184.227 66.226 184.227C68.7356 184.227 70.9316 183.699 72.6703 182.49C74.3757 181.303 75.6826 179.487 76.6654 177.199L98.6891 128.801C98.6893 128.801 98.6894 128.801 98.6895 128.801C99.7462 126.489 100.158 124.236 99.7109 122.116C99.3411 120.079 98.3598 118.408 96.7334 117.238C95.1427 116.033 93.2206 115.475 91.0686 115.475C88.5414 115.475 86.3453 116.072 84.6953 117.477C83.1665 118.721 81.9512 120.536 80.9853 122.79C80.9851 122.79 80.9849 122.791 80.9847 122.791L66.4937 156.39L52.0113 122.882C52.0109 122.881 52.0106 122.88 52.0102 122.88C51.0446 120.627 49.8368 118.799 48.3322 117.504C46.7094 116.053 44.4112 115.475 41.746 115.475C39.4956 115.475 37.4914 116.022 35.8378 117.217C34.1531 118.373 33.096 120.036 32.6561 122.089C32.2003 124.216 32.6103 126.478 33.671 128.799C33.6714 128.8 33.6718 128.801 33.6721 128.801L55.6113 177.213L55.6135 177.217C56.6571 179.5 57.9934 181.309 59.6909 182.49ZM104.801 180.743L104.823 180.766L104.847 180.789C106.73 182.597 109.255 183.411 112.211 183.411H142.584C145.148 183.411 147.361 182.734 148.96 181.143C150.619 179.555 151.347 177.369 151.347 174.83C151.347 172.302 150.625 170.129 148.946 168.593C147.348 167.012 145.14 166.339 142.584 166.339H122.062V126.232C122.062 123.238 121.259 120.695 119.429 118.857C117.643 117.001 115.11 116.2 112.12 116.2C109.168 116.2 106.656 117.013 104.824 118.845C102.985 120.684 102.179 123.231 102.179 126.232V173.379C102.179 176.335 102.993 178.859 104.801 180.743ZM164.668 180.139L164.674 180.142C170.095 183.012 176.592 184.408 184.1 184.408C187.513 184.408 190.923 184.129 194.332 183.571C197.732 183.015 200.899 182.24 203.832 181.242C205.756 180.6 207.278 179.479 208.233 177.824C209.196 176.257 209.636 174.418 209.636 172.382V152.344C209.636 149.96 208.987 147.887 207.446 146.407C205.966 144.865 203.893 144.216 201.508 144.216H188.09C185.775 144.216 183.747 144.798 182.219 146.163C180.699 147.516 180.052 149.429 180.052 151.619C180.052 153.815 180.701 155.732 182.186 157.134L182.202 157.149L182.218 157.163C183.746 158.53 185.774 159.112 188.09 159.112H192.836V166.323C192.133 166.473 191.431 166.606 190.728 166.723L190.721 166.725C188.679 167.075 186.806 167.246 185.098 167.246C179.448 167.246 175.457 165.752 172.832 163.022C170.197 160.281 168.746 156.092 168.746 150.168C168.746 146.223 169.385 142.993 170.59 140.42C171.779 137.878 173.538 135.994 175.884 134.713C178.31 133.42 181.416 132.728 185.279 132.728C187.527 132.728 189.643 132.959 191.632 133.413L191.653 133.418L191.675 133.422C193.675 133.822 195.516 134.419 197.205 135.207L197.216 135.213L197.227 135.218C199.201 136.102 201.155 136.422 203 135.94L203.031 135.932L203.062 135.923C204.781 135.4 206.176 134.404 207.176 132.946C208.154 131.547 208.765 130.017 208.985 128.371C209.268 126.638 209.054 124.968 208.321 123.408C207.594 121.663 206.217 120.389 204.39 119.537C201.247 117.906 198.024 116.799 194.724 116.226C191.492 115.606 188.313 115.294 185.188 115.294C179.48 115.294 174.31 116.1 169.698 117.741C165.148 119.322 161.256 121.675 158.053 124.812C154.859 127.88 152.409 131.579 150.699 135.887L150.694 135.899C149.04 140.161 148.228 144.926 148.228 150.168C148.228 156.917 149.605 162.9 152.412 168.068C155.226 173.248 159.325 177.276 164.668 180.139ZM232.126 181.559L232.137 181.571L232.149 181.582C233.981 183.415 236.493 184.227 239.445 184.227C242.486 184.227 245.057 183.439 246.851 181.587C248.635 179.744 249.387 177.119 249.387 174.014V153.988L266.419 129.41L266.427 129.398L266.435 129.386C267.786 127.36 268.477 125.241 268.334 123.067C268.253 120.905 267.407 119.052 265.815 117.611C264.163 116.117 261.948 115.475 259.392 115.475C257.343 115.475 255.48 115.921 253.863 116.876C252.247 117.831 250.788 119.405 249.447 121.446C249.445 121.449 249.443 121.453 249.441 121.456L239.71 135.843L229.996 121.55C228.713 119.502 227.251 117.923 225.567 116.964C223.922 115.968 222.098 115.475 220.133 115.475C217.438 115.475 215.12 116.187 213.409 117.82C211.85 119.304 210.962 121.175 210.744 123.353L210.742 123.378L210.74 123.402C210.593 125.525 211.151 127.49 212.386 129.236C212.387 129.238 212.389 129.24 212.39 129.242L229.504 153.871V174.014C229.504 177.068 230.305 179.663 232.126 181.559Z" stroke="#8ABFF4" stroke-width="3.2"/>
</g>
<defs>
<filter id="filter0_di_5336_181783" x="30.3385" y="113.694" width="239.614" height="76.048" filterUnits="userSpaceOnUse" color-interpolation-filters="sRGB">
<feFlood flood-opacity="0" result="BackgroundImageFix"/>
<feColorMatrix in="SourceAlpha" type="matrix" values="0 0 0 0 0 0 0 0 0 0 0 0 0 0 0 0 0 0 127 0" result="hardAlpha"/>
<feOffset dy="3.73333"/>
<feComposite in2="hardAlpha" operator="out"/>
<feColorMatrix type="matrix" values="0 0 0 0 0.329412 0 0 0 0 0.631373 0 0 0 0 0.933333 0 0 0 1 0"/>
<feBlend mode="normal" in2="BackgroundImageFix" result="effect1_dropShadow_5336_181783"/>
<feBlend mode="normal" in="SourceGraphic" in2="effect1_dropShadow_5336_181783" result="shape"/>
<feColorMatrix in="SourceAlpha" type="matrix" values="0 0 0 0 0 0 0 0 0 0 0 0 0 0 0 0 0 0 127 0" result="hardAlpha"/>
<feOffset dx="-0.533333" dy="5.33333"/>
<feGaussianBlur stdDeviation="0.533333"/>
<feComposite in2="hardAlpha" operator="arithmetic" k2="-1" k3="1"/>
<feColorMatrix type="matrix" values="0 0 0 0 0.960805 0 0 0 0 0.992215 0 0 0 0 0.999195 0 0 0 1 0"/>
<feBlend mode="normal" in2="shape" result="effect2_innerShadow_5336_181783"/>
</filter>
</defs>
</svg>
