<svg width="300" height="300" viewBox="0 0 300 300" fill="none" xmlns="http://www.w3.org/2000/svg">
<rect width="300" height="300" rx="150" fill="#B0D4F7"/>
<path d="M66.226 182.627C63.9291 182.627 62.0553 182.143 60.6046 181.176C59.2144 180.209 58.0357 178.668 57.0686 176.552L35.1273 128.136C34.1602 126.021 33.858 124.117 34.2206 122.424C34.5833 120.732 35.4295 119.432 36.7593 118.526C38.0891 117.558 39.7513 117.075 41.746 117.075C44.2242 117.075 46.0677 117.619 47.2766 118.707C48.546 119.795 49.634 121.397 50.5406 123.512L69.0366 166.307H63.9593L82.4553 123.422C83.362 121.306 84.45 119.734 85.7193 118.707C86.9886 117.619 88.7718 117.075 91.0686 117.075C92.9424 117.075 94.514 117.558 95.7833 118.526C97.0526 119.432 97.8384 120.732 98.1406 122.424C98.5033 124.117 98.2011 126.021 97.234 128.136L75.202 176.552C74.2953 178.668 73.1469 180.209 71.7566 181.176C70.3664 182.143 68.5229 182.627 66.226 182.627Z" fill="white"/>
<path d="M112.211 181.811C109.551 181.811 107.466 181.086 105.955 179.635C104.504 178.124 103.779 176.038 103.779 173.379V126.232C103.779 123.512 104.504 121.427 105.955 119.976C107.406 118.526 109.461 117.8 112.12 117.8C114.84 117.8 116.895 118.526 118.286 119.976C119.736 121.427 120.462 123.512 120.462 126.232V167.939H142.584C144.881 167.939 146.634 168.543 147.843 169.752C149.112 170.901 149.747 172.593 149.747 174.83C149.747 177.066 149.112 178.789 147.843 179.998C146.634 181.206 144.881 181.811 142.584 181.811H112.211Z" fill="white"/>
<path d="M184.1 182.808C176.787 182.808 170.561 181.448 165.423 178.728C160.346 176.008 156.477 172.2 153.818 167.304C151.158 162.408 149.828 156.696 149.828 150.168C149.828 145.091 150.614 140.527 152.186 136.478C153.818 132.367 156.145 128.862 159.167 125.96C162.189 122.998 165.876 120.762 170.228 119.251C174.641 117.679 179.628 116.894 185.188 116.894C188.211 116.894 191.293 117.196 194.436 117.8C197.58 118.344 200.662 119.402 203.684 120.974C205.256 121.699 206.314 122.726 206.858 124.056C207.462 125.326 207.644 126.686 207.402 128.136C207.22 129.526 206.707 130.826 205.86 132.035C205.075 133.183 203.987 133.969 202.596 134.392C201.206 134.755 199.635 134.543 197.882 133.758C196.068 132.911 194.104 132.277 191.988 131.854C189.873 131.37 187.636 131.128 185.279 131.128C181.229 131.128 177.844 131.854 175.124 133.304C172.465 134.755 170.47 136.901 169.14 139.742C167.811 142.582 167.146 146.058 167.146 150.168C167.146 156.334 168.657 160.988 171.679 164.131C174.701 167.274 179.174 168.846 185.098 168.846C186.911 168.846 188.876 168.664 190.991 168.302C193.167 167.939 195.343 167.425 197.519 166.76L194.436 173.016V157.512H188.09C186.035 157.512 184.433 156.998 183.284 155.971C182.196 154.943 181.652 153.493 181.652 151.619C181.652 149.745 182.196 148.325 183.284 147.358C184.433 146.33 186.035 145.816 188.09 145.816H201.508C203.624 145.816 205.226 146.39 206.314 147.539C207.462 148.627 208.036 150.229 208.036 152.344V172.382C208.036 174.195 207.644 175.736 206.858 177.006C206.132 178.275 204.954 179.182 203.322 179.726C200.481 180.693 197.398 181.448 194.074 181.992C190.749 182.536 187.425 182.808 184.1 182.808Z" fill="white"/>
<path d="M239.445 182.627C236.786 182.627 234.731 181.902 233.28 180.451C231.829 178.94 231.104 176.794 231.104 174.014V149.171L234.549 158.328L213.696 128.318C212.668 126.867 212.215 125.265 212.336 123.512C212.517 121.699 213.243 120.188 214.512 118.979C215.842 117.71 217.716 117.075 220.133 117.075C221.826 117.075 223.367 117.498 224.757 118.344C226.148 119.13 227.447 120.49 228.656 122.424L241.349 141.102H238.085L250.779 122.334C252.048 120.399 253.348 119.039 254.677 118.254C256.007 117.468 257.579 117.075 259.392 117.075C261.689 117.075 263.472 117.649 264.741 118.798C266.011 119.946 266.676 121.397 266.736 123.15C266.857 124.902 266.313 126.686 265.104 128.499L244.432 158.328L247.787 149.171V174.014C247.787 179.756 245.006 182.627 239.445 182.627Z" fill="white"/>
</svg>
