<svg width="800" height="132" viewBox="0 0 800 132" fill="none" xmlns="http://www.w3.org/2000/svg">
<path d="M32.6223 147.335C27.506 147.335 23.3322 146.258 20.1008 144.104C17.0041 141.949 14.3786 138.516 12.2244 133.804L-36.6499 25.9571C-38.8042 21.2447 -39.4774 17.0035 -38.6695 13.2336C-37.8617 9.46369 -35.9767 6.56894 -33.0146 4.54934C-30.0526 2.3951 -26.35 1.31798 -21.9068 1.31798C-16.3866 1.31798 -12.2801 2.52974 -9.5873 4.95326C-6.75986 7.37677 -4.33634 10.9447 -2.31674 15.6571L38.8831 110.982H27.5733L68.7731 15.4552C70.7927 10.7428 73.2163 7.24214 76.0437 4.95326C78.8711 2.52974 82.843 1.31798 87.9593 1.31798C92.1332 1.31798 95.6338 2.3951 98.4612 4.54934C101.289 6.56894 103.039 9.46369 103.712 13.2336C104.52 17.0035 103.847 21.2447 101.693 25.9571L52.6163 133.804C50.5967 138.516 48.0386 141.949 44.9419 144.104C41.8452 146.258 37.7386 147.335 32.6223 147.335Z" fill="white"/>
<path d="M135.054 145.517C129.13 145.517 124.485 143.902 121.119 140.67C117.887 137.304 116.272 132.659 116.272 126.735V21.7159C116.272 15.6571 117.887 11.012 121.119 7.78069C124.35 4.54934 128.928 2.93366 134.852 2.93366C140.911 2.93366 145.488 4.54934 148.585 7.78069C151.817 11.012 153.432 15.6571 153.432 21.7159V114.617H202.71C207.827 114.617 211.731 115.964 214.424 118.657C217.252 121.215 218.665 124.985 218.665 129.966C218.665 134.948 217.252 138.785 214.424 141.478C211.731 144.171 207.827 145.517 202.71 145.517H135.054Z" fill="white"/>
<path d="M291.148 147.739C276.742 147.739 264.086 144.709 253.18 138.651C242.274 132.457 233.792 123.84 227.733 112.8C221.809 101.759 218.847 88.9012 218.847 74.2255C218.847 63.185 220.53 53.1543 223.896 44.1335C227.396 35.1126 232.311 27.3708 238.639 20.9081C245.101 14.4454 252.776 9.53101 261.662 6.16501C270.548 2.66438 280.377 0.914062 291.148 0.914062C305.555 0.914062 318.144 3.94346 328.915 10.0023C339.821 16.061 348.303 24.6107 354.362 35.6512C360.421 46.557 363.45 59.4151 363.45 74.2255C363.45 85.266 361.7 95.2966 358.199 104.318C354.833 113.338 349.919 121.147 343.456 127.745C337.128 134.208 329.521 139.189 320.634 142.69C311.748 146.056 301.919 147.739 291.148 147.739ZM291.148 116.637C298.284 116.637 304.343 114.954 309.325 111.588C314.306 108.222 318.144 103.375 320.836 97.047C323.529 90.7189 324.876 83.1117 324.876 74.2255C324.876 60.8961 321.914 50.5289 315.989 43.1237C310.065 35.7185 301.785 32.0159 291.148 32.0159C284.147 32.0159 278.088 33.6989 272.972 37.0649C267.99 40.2962 264.153 45.076 261.46 51.404C258.767 57.5975 257.421 65.2046 257.421 74.2255C257.421 87.5548 260.383 97.9894 266.307 105.529C272.231 112.934 280.512 116.637 291.148 116.637Z" fill="white"/>
<path d="M454.057 147.739C437.766 147.739 423.898 144.709 412.454 138.651C401.144 132.592 392.527 124.11 386.603 113.204C380.679 102.298 377.717 89.5744 377.717 75.0333C377.717 63.7236 379.467 53.5583 382.967 44.5374C386.603 35.3819 391.786 27.5728 398.518 21.11C405.25 14.5127 413.463 9.53101 423.158 6.16501C432.986 2.66438 444.094 0.914062 456.481 0.914062C463.213 0.914062 470.08 1.58726 477.081 2.93366C484.082 4.14542 490.949 6.50162 497.681 10.0023C501.181 11.6179 503.538 13.9068 504.749 16.8689C506.096 19.6963 506.5 22.7257 505.961 25.9571C505.557 29.0538 504.413 31.9486 502.528 34.6414C500.777 37.1995 498.354 38.9498 495.257 39.8923C492.16 40.7002 488.66 40.2289 484.755 38.4786C480.716 36.5936 476.34 35.1799 471.628 34.2374C466.915 33.1603 461.934 32.6218 456.683 32.6218C447.662 32.6218 440.122 34.2374 434.063 37.4688C428.139 40.7002 423.696 45.4799 420.734 51.8079C417.772 58.136 416.291 65.8778 416.291 75.0333C416.291 88.7666 419.657 99.1339 426.389 106.135C433.121 113.136 443.084 116.637 456.279 116.637C460.318 116.637 464.694 116.233 469.406 115.425C474.253 114.617 479.1 113.473 483.947 111.992L477.081 125.927V91.3921H462.944C458.366 91.3921 454.798 90.2476 452.24 87.9588C449.816 85.6699 448.604 82.4385 448.604 78.2647C448.604 74.0909 449.816 70.9268 452.24 68.7726C454.798 66.4837 458.366 65.3393 462.944 65.3393H492.834C497.546 65.3393 501.114 66.6183 503.538 69.1765C506.096 71.6 507.375 75.168 507.375 79.8804V124.514C507.375 128.553 506.5 131.986 504.749 134.813C503.134 137.641 500.508 139.66 496.873 140.872C490.545 143.026 483.678 144.709 476.273 145.921C468.868 147.133 461.463 147.739 454.057 147.739Z" fill="white"/>
<path d="M600.896 147.739C584.605 147.739 570.737 144.709 559.293 138.651C547.983 132.592 539.366 124.11 533.442 113.204C527.518 102.298 524.556 89.5744 524.556 75.0333C524.556 63.7236 526.306 53.5583 529.807 44.5374C533.442 35.3819 538.625 27.5728 545.357 21.11C552.089 14.5127 560.302 9.53101 569.997 6.16501C579.825 2.66438 590.933 0.914062 603.32 0.914062C610.052 0.914062 616.919 1.58726 623.92 2.93366C630.921 4.14542 637.788 6.50162 644.52 10.0023C648.02 11.6179 650.377 13.9068 651.588 16.8689C652.935 19.6963 653.339 22.7257 652.8 25.9571C652.396 29.0538 651.252 31.9486 649.367 34.6414C647.616 37.1995 645.193 38.9498 642.096 39.8923C639 40.7002 635.499 40.2289 631.594 38.4786C627.555 36.5936 623.179 35.1799 618.467 34.2374C613.755 33.1603 608.773 32.6218 603.522 32.6218C594.501 32.6218 586.961 34.2374 580.902 37.4688C574.978 40.7002 570.535 45.4799 567.573 51.8079C564.611 58.136 563.13 65.8778 563.13 75.0333C563.13 88.7666 566.496 99.1339 573.228 106.135C579.96 113.136 589.923 116.637 603.118 116.637C607.157 116.637 611.533 116.233 616.245 115.425C621.092 114.617 625.939 113.473 630.786 111.992L623.92 125.927V91.3921H609.783C605.205 91.3921 601.637 90.2476 599.079 87.9588C596.655 85.6699 595.443 82.4385 595.443 78.2647C595.443 74.0909 596.655 70.9268 599.079 68.7726C601.637 66.4837 605.205 65.3393 609.783 65.3393H639.673C644.385 65.3393 647.953 66.6183 650.377 69.1765C652.935 71.6 654.214 75.168 654.214 79.8804V124.514C654.214 128.553 653.339 131.986 651.588 134.813C649.973 137.641 647.347 139.66 643.712 140.872C637.384 143.026 630.517 144.709 623.112 145.921C615.707 147.133 608.302 147.739 600.896 147.739Z" fill="white"/>
<path d="M693.812 145.517C687.888 145.517 683.243 143.902 679.877 140.67C676.646 137.304 675.03 132.659 675.03 126.735V21.7159C675.03 15.6571 676.646 11.012 679.877 7.78069C683.108 4.54934 687.686 2.93366 693.61 2.93366C699.669 2.93366 704.247 4.54934 707.344 7.78069C710.575 11.012 712.19 15.6571 712.19 21.7159V114.617H761.469C766.585 114.617 770.49 115.964 773.182 118.657C776.01 121.215 777.424 124.985 777.424 129.966C777.424 134.948 776.01 138.785 773.182 141.478C770.49 144.171 766.585 145.517 761.469 145.517H693.812Z" fill="white"/>
<path d="M817.173 147.335C811.249 147.335 806.671 145.719 803.44 142.488C800.209 139.122 798.593 134.342 798.593 128.149V72.8118L806.268 93.2097L759.817 26.361C757.528 23.1296 756.518 19.5617 756.787 15.6571C757.191 11.6179 758.807 8.25194 761.634 5.55914C764.596 2.7317 768.77 1.31798 774.156 1.31798C777.926 1.31798 781.359 2.26046 784.456 4.14541C787.553 5.89574 790.447 8.92513 793.14 13.2336L821.414 54.8373H814.144L842.418 13.0317C845.246 8.72318 848.141 5.69378 851.103 3.94346C854.065 2.19314 857.565 1.31798 861.605 1.31798C866.721 1.31798 870.693 2.59706 873.52 5.15521C876.348 7.71337 877.829 10.9447 877.963 14.8493C878.233 18.7538 877.021 22.7257 874.328 26.7649L828.281 93.2097L835.754 72.8118V128.149C835.754 140.94 829.56 147.335 817.173 147.335Z" fill="white"/>
</svg>
