<svg width="150" height="24" viewBox="0 0 150 24" fill="none" xmlns="http://www.w3.org/2000/svg">
<path d="M11.6928 23.9041C10.8575 23.9041 10.1761 23.7282 9.64855 23.3765C9.14299 23.0248 8.71437 22.4643 8.36267 21.695L0.383664 4.08842C0.031972 3.31909 -0.0779317 2.6267 0.0539527 2.01124C0.185837 1.39578 0.493568 0.923191 0.977144 0.59348C1.46072 0.241788 2.06519 0.0659414 2.79056 0.0659414C3.69177 0.0659414 4.36218 0.263768 4.80179 0.659422C5.26339 1.05508 5.65904 1.63757 5.98875 2.40689L12.7149 17.9693H10.8685L17.5946 2.37392C17.9243 1.60459 18.32 1.03309 18.7815 0.659422C19.2431 0.263768 19.8916 0.0659414 20.7268 0.0659414C21.4082 0.0659414 21.9797 0.241788 22.4413 0.59348C22.9029 0.923191 23.1887 1.39578 23.2986 2.01124C23.4305 2.6267 23.3206 3.31909 22.9689 4.08842L14.9569 21.695C14.6272 22.4643 14.2096 23.0248 13.704 23.3765C13.1984 23.7282 12.528 23.9041 11.6928 23.9041Z" fill="white"/>
<path d="M28.4153 23.6073C27.4481 23.6073 26.6898 23.3435 26.1403 22.816C25.6128 22.2665 25.349 21.5082 25.349 20.541V3.39602C25.349 2.40689 25.6128 1.64855 26.1403 1.12102C26.6678 0.59348 27.4152 0.329711 28.3823 0.329711C29.3715 0.329711 30.1188 0.59348 30.6244 1.12102C31.1519 1.64855 31.4157 2.40689 31.4157 3.39602V18.5627H39.4606C40.2959 18.5627 40.9333 18.7825 41.3729 19.2222C41.8345 19.6398 42.0653 20.2553 42.0653 21.0685C42.0653 21.8818 41.8345 22.5083 41.3729 22.9479C40.9333 23.3875 40.2959 23.6073 39.4606 23.6073H28.4153Z" fill="white"/>
<path d="M53.8986 23.97C51.5467 23.97 49.4805 23.4754 47.7 22.4863C45.9196 21.4752 44.5348 20.0684 43.5457 18.266C42.5785 16.4636 42.095 14.3644 42.095 11.9685C42.095 10.1661 42.3697 8.52853 42.9192 7.05582C43.4907 5.58311 44.293 4.31922 45.3261 3.26414C46.3812 2.20906 47.6341 1.40677 49.0848 0.857248C50.5356 0.285749 52.1402 0 53.8986 0C56.2506 0 58.3058 0.494567 60.0642 1.4837C61.8447 2.47283 63.2294 3.86861 64.2186 5.67103C65.2077 7.45147 65.7023 9.55063 65.7023 11.9685C65.7023 13.7709 65.4165 15.4085 64.845 16.8812C64.2955 18.3539 63.4932 19.6288 62.4381 20.7059C61.405 21.7609 60.1631 22.5742 58.7124 23.1457C57.2617 23.6952 55.6571 23.97 53.8986 23.97ZM53.8986 18.8924C55.0636 18.8924 56.0527 18.6177 56.866 18.0682C57.6793 17.5187 58.3058 16.7273 58.7454 15.6943C59.185 14.6612 59.4048 13.4192 59.4048 11.9685C59.4048 9.79242 58.9212 8.0999 57.9541 6.89096C56.9869 5.68202 55.6351 5.07755 53.8986 5.07755C52.7556 5.07755 51.7665 5.35231 50.9312 5.90183C50.1179 6.42937 49.4915 7.20968 49.0519 8.24278C48.6122 9.25389 48.3924 10.4958 48.3924 11.9685C48.3924 14.1446 48.876 15.8481 49.8432 17.079C50.8103 18.288 52.1621 18.8924 53.8986 18.8924Z" fill="white"/>
<path d="M80.4945 23.97C77.8348 23.97 75.5708 23.4754 73.7024 22.4863C71.856 21.4972 70.4493 20.1124 69.4821 18.3319C68.515 16.5515 68.0314 14.4743 68.0314 12.1004C68.0314 10.254 68.3171 8.59447 68.8886 7.12176C69.4821 5.62707 70.3284 4.35219 71.4274 3.29711C72.5264 2.22005 73.8673 1.40677 75.4499 0.857248C77.0545 0.285749 78.8679 0 80.8901 0C81.9892 0 83.1102 0.109904 84.2532 0.329711C85.3962 0.527538 86.5172 0.912201 87.6162 1.4837C88.1877 1.74747 88.5724 2.12114 88.7702 2.60472C88.99 3.06631 89.056 3.56088 88.968 4.08842C88.9021 4.59398 88.7153 5.06656 88.4075 5.50618C88.1218 5.92381 87.7261 6.20956 87.2206 6.36343C86.715 6.49531 86.1435 6.41838 85.5061 6.13263C84.8466 5.8249 84.1323 5.5941 83.3629 5.44023C82.5936 5.26439 81.7803 5.17647 80.9231 5.17647C79.4504 5.17647 78.2195 5.44023 77.2303 5.96777C76.2632 6.49531 75.5378 7.27563 75.0542 8.30872C74.5707 9.34181 74.3289 10.6057 74.3289 12.1004C74.3289 14.3424 74.8784 16.035 75.9774 17.178C77.0765 18.3209 78.703 18.8924 80.8571 18.8924C81.5166 18.8924 82.2309 18.8265 83.0003 18.6946C83.7916 18.5627 84.5829 18.3759 85.3742 18.1341L84.2532 20.4091V14.7711H81.9452C81.1978 14.7711 80.6154 14.5842 80.1977 14.2105C79.8021 13.8369 79.6042 13.3093 79.6042 12.6279C79.6042 11.9465 79.8021 11.43 80.1977 11.0783C80.6154 10.7046 81.1978 10.5178 81.9452 10.5178H86.8249C87.5942 10.5178 88.1767 10.7266 88.5724 11.1442C88.99 11.5399 89.1988 12.1224 89.1988 12.8917V20.1783C89.1988 20.8377 89.056 21.3983 88.7702 21.8598C88.5064 22.3214 88.0778 22.6512 87.4843 22.849C86.4512 23.2007 85.3302 23.4754 84.1213 23.6733C82.9123 23.8711 81.7034 23.97 80.4945 23.97Z" fill="white"/>
<path d="M104.467 23.97C101.807 23.97 99.5431 23.4754 97.6747 22.4863C95.8283 21.4972 94.4216 20.1124 93.4544 18.3319C92.4873 16.5515 92.0037 14.4743 92.0037 12.1004C92.0037 10.254 92.2894 8.59447 92.8609 7.12176C93.4544 5.62707 94.3007 4.35219 95.3997 3.29711C96.4988 2.22005 97.8396 1.40677 99.4222 0.857248C101.027 0.285749 102.84 0 104.862 0C105.961 0 107.082 0.109904 108.225 0.329711C109.368 0.527538 110.489 0.912201 111.589 1.4837C112.16 1.74747 112.545 2.12114 112.743 2.60472C112.962 3.06631 113.028 3.56088 112.94 4.08842C112.874 4.59398 112.688 5.06656 112.38 5.50618C112.094 5.92381 111.698 6.20956 111.193 6.36343C110.687 6.49531 110.116 6.41838 109.478 6.13263C108.819 5.8249 108.105 5.5941 107.335 5.44023C106.566 5.26439 105.753 5.17647 104.895 5.17647C103.423 5.17647 102.192 5.44023 101.203 5.96777C100.235 6.49531 99.5101 7.27563 99.0265 8.30872C98.543 9.34181 98.3012 10.6057 98.3012 12.1004C98.3012 14.3424 98.8507 16.035 99.9497 17.178C101.049 18.3209 102.675 18.8924 104.829 18.8924C105.489 18.8924 106.203 18.8265 106.973 18.6946C107.764 18.5627 108.555 18.3759 109.347 18.1341L108.225 20.4091V14.7711H105.918C105.17 14.7711 104.588 14.5842 104.17 14.2105C103.774 13.8369 103.577 13.3093 103.577 12.6279C103.577 11.9465 103.774 11.43 104.17 11.0783C104.588 10.7046 105.17 10.5178 105.918 10.5178H110.797C111.567 10.5178 112.149 10.7266 112.545 11.1442C112.962 11.5399 113.171 12.1224 113.171 12.8917V20.1783C113.171 20.8377 113.028 21.3983 112.743 21.8598C112.479 22.3214 112.05 22.6512 111.457 22.849C110.424 23.2007 109.303 23.4754 108.094 23.6733C106.885 23.8711 105.676 23.97 104.467 23.97Z" fill="white"/>
<path d="M119.636 23.6073C118.669 23.6073 117.91 23.3435 117.361 22.816C116.833 22.2665 116.569 21.5082 116.569 20.541V3.39602C116.569 2.40689 116.833 1.64855 117.361 1.12102C117.888 0.59348 118.636 0.329711 119.603 0.329711C120.592 0.329711 121.339 0.59348 121.845 1.12102C122.372 1.64855 122.636 2.40689 122.636 3.39602V18.5627H130.681C131.516 18.5627 132.154 18.7825 132.593 19.2222C133.055 19.6398 133.286 20.2553 133.286 21.0685C133.286 21.8818 133.055 22.5083 132.593 22.9479C132.154 23.3875 131.516 23.6073 130.681 23.6073H119.636Z" fill="white"/>
<path d="M139.775 23.9041C138.808 23.9041 138.061 23.6403 137.533 23.1128C137.006 22.5632 136.742 21.7829 136.742 20.7718V11.7377L137.995 15.0678L130.411 4.15436C130.038 3.62682 129.873 3.04433 129.917 2.40689C129.983 1.74747 130.247 1.19795 130.708 0.758336C131.192 0.296739 131.873 0.0659414 132.752 0.0659414C133.368 0.0659414 133.928 0.219807 134.434 0.527537C134.939 0.813287 135.412 1.30785 135.852 2.01124L140.468 8.80329H139.281L143.897 1.97827C144.358 1.27488 144.831 0.780316 145.314 0.494566C145.798 0.208816 146.369 0.0659414 147.029 0.0659414C147.864 0.0659414 148.513 0.274758 148.974 0.692392C149.436 1.11003 149.678 1.63756 149.7 2.27501C149.744 2.91245 149.546 3.56088 149.106 4.2203L141.589 15.0678L142.809 11.7377V20.7718C142.809 22.86 141.797 23.9041 139.775 23.9041Z" fill="white"/>
</svg>
