<svg xmlns="http://www.w3.org/2000/svg" width="24" height="24" viewBox="0 0 24 24" fill="none">
  <path d="M20.0746 7.73699C20.1102 7.47673 20.1102 7.21647 20.0746 6.95621C19.8897 5.28248 18.4852 4 16.8114 4H10.1886C9.60407 4 9.09981 4.39008 8.95519 4.95621L5.03833 19.0438C4.92864 19.5229 5.28814 20 5.77177 20H9.09981C9.68431 20 10.1886 19.6099 10.3332 19.0438L11.2705 15.3333H14.5986C16.2724 15.3333 17.6768 14.0508 17.8618 12.3771C17.8974 12.1168 17.8974 11.8566 17.8618 11.5963L18.7991 7.88582C18.8347 7.84975 18.9088 7.77764 19.0185 7.73699H20.0746ZM14.5986 12.6667H11.9993L13.0554 8.66667H15.6547C16.0142 8.66667 16.3025 8.95621 16.3025 9.31571C16.3025 9.35636 16.3025 9.39702 16.3025 9.43768L15.6547 12.0169C15.5808 12.3771 15.2925 12.6667 14.5986 12.6667Z" fill="#003087"/>
</svg>