<svg width="48" height="16" viewBox="0 0 48 16" fill="none" xmlns="http://www.w3.org/2000/svg">
  <path d="M19.128 15.1H15.425L17.733 0.9H21.436L19.128 15.1Z" fill="#00579F"/>
  <path d="M34.7 1.2C33.9 0.9 32.7 0.6 31.2 0.6C27.5 0.6 24.9 2.5 24.9 5.2C24.9 7.3 26.8 8.4 28.2 9.1C29.6 9.8 30.1 10.2 30.1 10.8C30.1 11.7 29 12.1 28 12.1C26.6 12.1 25.9 11.9 24.7 11.4L24.2 11.2L23.7 14.5C24.6 14.9 26.3 15.2 28 15.2C31.9 15.2 34.5 13.3 34.5 10.4C34.5 8.7 33.5 7.4 31.4 6.4C30.1 5.8 29.3 5.4 29.3 4.7C29.3 4.1 30 3.5 31.4 3.5C32.6 3.5 33.4 3.7 34 4L34.3 4.1L34.7 1.2Z" fill="#00579F"/>
  <path d="M40.3 10.1C40.6 9.3 41.8 6 41.8 6C41.8 6 42.1 5.2 42.3 4.7L42.5 5.9C42.5 5.9 43.2 9.4 43.3 10.1H40.3ZM45.9 0.9H43C42 0.9 41.3 1.2 40.9 2.1L35 15.1H38.9C38.9 15.1 39.5 13.4 39.7 12.9C40.1 12.9 43.7 12.9 44.2 12.9C44.4 13.5 44.7 15.1 44.7 15.1H48L45.9 0.9Z" fill="#00579F"/>
  <path d="M13.1 0.9L9.5 10.7L9.1 8.8C8.4 6.6 6.3 4.2 4 3L7.3 15.1H11.2L17.1 0.9H13.1Z" fill="#00579F"/>
  <path d="M6 0.9H0.1L0 1.2C4.6 2.3 7.7 5.3 8.9 8.8L7.6 2.1C7.4 1.2 6.8 0.9 6 0.9Z" fill="#FAA61A"/>
</svg>