<svg width="16" height="17" viewBox="0 0 16 17" fill="none" xmlns="http://www.w3.org/2000/svg">
<g clip-path="url(#clip0_3348_126087)">
<path d="M8.00662 1.84082C8.52514 1.84085 9.0259 2.02973 9.41528 2.37215L9.51795 2.46882L9.98328 2.93415C10.111 3.06103 10.2778 3.14112 10.4566 3.16149L10.5466 3.16682H11.2133C11.7581 3.16679 12.2823 3.3752 12.6783 3.74931C13.0744 4.12343 13.3123 4.63489 13.3433 5.17882L13.3466 5.30015V5.96682C13.3466 6.14682 13.4079 6.32215 13.5186 6.46215L13.5786 6.52882L14.0433 6.99415C14.4284 7.37712 14.653 7.89257 14.6712 8.4354C14.6894 8.97823 14.4999 9.50757 14.1413 9.91549L14.0446 10.0182L13.5793 10.4835C13.4524 10.6112 13.3723 10.778 13.3519 10.9568L13.3466 11.0468V11.7135C13.3466 12.2583 13.1382 12.7825 12.7641 13.1785C12.39 13.5746 11.8785 13.8125 11.3346 13.8435L11.2133 13.8468H10.5466C10.3669 13.8469 10.1924 13.9075 10.0513 14.0188L9.98462 14.0788L9.51928 14.5435C9.13632 14.9286 8.62087 15.1532 8.07804 15.1714C7.5352 15.1896 7.00586 15.0001 6.59795 14.6415L6.49528 14.5448L6.02995 14.0795C5.90224 13.9526 5.73548 13.8725 5.55662 13.8522L5.46662 13.8468H4.79995C4.25514 13.8469 3.73096 13.6384 3.3349 13.2643C2.93885 12.8902 2.70094 12.3788 2.66995 11.8348L2.66662 11.7135V11.0468C2.66656 10.8671 2.60597 10.6926 2.49462 10.5515L2.43462 10.4848L1.96995 10.0195C1.5848 9.63652 1.36023 9.12107 1.34202 8.57824C1.32381 8.03541 1.51333 7.50607 1.87195 7.09815L1.96862 6.99549L2.43395 6.53015C2.56082 6.40245 2.64092 6.23568 2.66128 6.05682L2.66662 5.96682V5.30015L2.66995 5.17882C2.69972 4.65578 2.9209 4.16199 3.29134 3.79155C3.66178 3.4211 4.15558 3.19992 4.67862 3.17015L4.79995 3.16682H5.46662C5.64636 3.16676 5.82085 3.10617 5.96195 2.99482L6.02862 2.93482L6.49395 2.47015C6.69217 2.27075 6.92786 2.11249 7.18746 2.00449C7.44706 1.89648 7.72545 1.84086 8.00662 1.84082ZM10.4713 6.69549C10.3463 6.57051 10.1767 6.5003 9.99995 6.5003C9.82317 6.5003 9.65364 6.57051 9.52862 6.69549L7.33328 8.89015L6.47128 8.02882L6.40862 7.97349C6.27462 7.86988 6.10621 7.82116 5.9376 7.83722C5.76898 7.85328 5.6128 7.93292 5.50078 8.05997C5.38876 8.18701 5.32929 8.35193 5.33446 8.52123C5.33963 8.69053 5.40905 8.85152 5.52862 8.97149L6.86195 10.3048L6.92462 10.3602C7.05289 10.4597 7.21305 10.5089 7.37507 10.4987C7.53709 10.4886 7.68982 10.4196 7.80462 10.3048L10.4713 7.63815L10.5266 7.57549C10.6261 7.44722 10.6754 7.28705 10.6652 7.12503C10.655 6.96302 10.5861 6.81028 10.4713 6.69549Z" fill="#0073E6"/>
</g>
<defs>
<clipPath id="clip0_3348_126087">
<rect width="16" height="16" fill="white" transform="translate(0 0.5)"/>
</clipPath>
</defs>
</svg>
